<svg id="Layer_1" xmlns="http://www.w3.org/2000/svg" viewBox="0 0 205.1 54.9"><style>.st1{fill:#d13239}</style><g id="Artwork_1"><path d="M.4 26.5l2.1.4c.1.8.4 1.4.8 1.8.5.4 1.1.6 2 .6.9 0 1.6-.2 2.2-.7.5-.4.9-1.1 1.1-2 .1-.5.2-1.6.2-3.3-.5.7-1 1.1-1.5 1.5-.6.3-1.2.5-1.9.5-1.5 0-2.7-.6-3.7-1.9C.6 22 0 20.1 0 17.7c0-1.6.2-3 .7-4.2.5-1.2 1.1-2.1 1.9-2.7.9-.5 1.8-.8 2.8-.8.7 0 1.4.2 2 .5.6.4 1.1.9 1.6 1.6v-1.8h1.9v13c0 2.3-.2 3.9-.6 4.9-.4 1-1 1.8-1.9 2.3-.9.6-1.9.9-3.1.9-1.6 0-2.8-.4-3.7-1.3C.8 29.2.4 28 .4 26.5m1.7-9c0 2 .3 3.4 1 4.3.7.9 1.5 1.4 2.4 1.4.9 0 1.8-.4 2.4-1.3.7-.9 1-2.3 1-4.2 0-1.9-.3-3.3-1-4.2-.7-.9-1.5-1.4-2.5-1.4-.9 0-1.6.5-2.3 1.4-.6.9-1 2.2-1 4m21.1 7.8v-2.2c-.5.8-1 1.5-1.7 1.9-.7.4-1.4.6-2.2.6-1 0-1.8-.3-2.5-.8s-1.1-1.2-1.4-2c-.2-.8-.3-1.9-.3-3.3v-9.3h2.1v8.3c0 1.5.1 2.6.2 3.1.2.5.4.9.9 1.3.4.3.9.5 1.4.5 1 0 1.8-.4 2.5-1.2.5-.7.8-2 .8-3.9v-8h2.1v15h-1.9zm14.3-1.9c-.7.7-1.4 1.3-2.2 1.6-.8.4-1.5.6-2.3.6-1.3 0-2.3-.4-3.1-1.2-.8-.8-1.1-1.8-1.1-3.1 0-.9.2-1.6.5-2.3.4-.7.9-1.2 1.5-1.6.6-.4 1.6-.6 2.8-.8 1.7-.3 2.9-.6 3.7-.9v-.6c0-1-.2-1.7-.6-2.1-.5-.6-1.3-.9-2.4-.9-1 0-1.7.2-2.2.6-.5.4-.8 1.2-1.1 2.3l-2.1-.4c.3-1.6.9-2.8 1.8-3.5.9-.7 2.2-1.1 3.8-1.1 1.3 0 2.3.2 3 .7.7.5 1.2 1.1 1.4 1.8.2.7.3 1.8.3 3.1V19c0 2.4 0 3.9.1 4.5.1.6.3 1.2.5 1.8h-2.2c.1-.5 0-1.2-.1-1.9m-.2-5.6c-.8.4-1.9.7-3.4 1-.9.2-1.5.3-1.8.5-.3.2-.6.5-.8.8-.2.4-.3.8-.3 1.2 0 .7.2 1.3.7 1.7.4.4 1.1.6 1.8.6s1.4-.2 2-.6c.6-.4 1.1-.9 1.4-1.5.3-.6.5-1.6.5-2.8v-.9zm6.5 7.5v-15h1.9v2.3c.5-1.1.9-1.8 1.3-2.1.4-.3.8-.5 1.3-.5.7 0 1.4.3 2.1.8l-.7 2.4c-.5-.4-1-.6-1.5-.6-.4 0-.8.2-1.2.5-.4.3-.6.7-.8 1.3-.3 1-.4 2-.4 3.1v7.8h-2zm17.1-1.9c-.7.7-1.4 1.3-2.2 1.6-.8.4-1.5.6-2.3.6-1.3 0-2.3-.4-3.1-1.2-.8-.8-1.1-1.8-1.1-3.1 0-.9.2-1.6.5-2.3.4-.7.9-1.2 1.5-1.6.6-.4 1.6-.6 2.8-.8 1.7-.3 2.9-.6 3.7-.9v-.6c0-1-.2-1.7-.5-2.1-.5-.6-1.3-.9-2.4-.9-1 0-1.7.2-2.2.6-.5.4-.8 1.2-1.1 2.3l-2.1-.4c.3-1.6.9-2.8 1.8-3.5.9-.7 2.2-1.1 3.8-1.1 1.3 0 2.3.2 3 .7.7.5 1.2 1.1 1.4 1.8.2.7.3 1.8.3 3.1V19c0 2.4 0 3.9.1 4.5.1.6.3 1.2.5 1.8h-2.2c0-.5-.2-1.2-.2-1.9m-.2-5.6c-.8.4-1.9.7-3.4 1-.9.2-1.5.3-1.8.5-.3.2-.6.5-.8.8-.2.4-.3.8-.3 1.2 0 .7.2 1.3.7 1.7.4.4 1.1.6 1.8.6s1.4-.2 2-.6c.6-.4 1.1-.9 1.4-1.5.3-.6.5-1.6.5-2.8v-.9zm6.5 7.5v-15h1.9v2.1c.4-.8 1-1.4 1.6-1.8.7-.4 1.4-.6 2.2-.6.7 0 1.3.1 1.8.4.6.3 1 .6 1.3 1 .3.4.6 1 .8 1.6.2.7.3 1.7.3 3.1v9.2H75v-9.1c0-1.1-.1-1.9-.3-2.4-.2-.5-.5-.9-.9-1.2-.4-.3-.9-.4-1.4-.4-1 0-1.8.4-2.4 1.1-.6.7-.9 2-.9 3.8v8.2h-1.9zM86.1 23l.3 2.3c-.6.1-1.1.2-1.6.2-.7 0-1.3-.1-1.8-.4-.5-.3-.8-.7-.9-1.2-.2-.5-.3-1.5-.3-3v-8.6h-1.6v-2H82V6.6l2-1.5v5.2h2.1v2H84V21c0 .8.1 1.3.2 1.6.2.3.5.5 1 .5.2 0 .6 0 .9-.1m11.6-2.6l2.1.4c-.4 1.6-1 2.8-1.9 3.6-.9.8-2.1 1.2-3.5 1.2-1.7 0-3.2-.7-4.2-2-1.1-1.3-1.6-3.2-1.6-5.7 0-2.6.5-4.6 1.6-5.9 1.1-1.4 2.5-2 4.1-2 1.6 0 2.9.7 4 2s1.6 3.3 1.6 5.8v.7h-9.2c.1 1.7.5 2.9 1.2 3.8.7.9 1.5 1.3 2.5 1.3 1.6-.1 2.7-1.1 3.3-3.2m-6.9-4.1h6.9c-.1-1.3-.4-2.2-.8-2.9-.7-.9-1.5-1.4-2.6-1.4-.9 0-1.7.4-2.4 1.1-.6.9-1 1.9-1.1 3.2m21.2 4.1l2.1.4c-.3 1.6-1 2.8-1.9 3.6-.9.8-2.1 1.2-3.5 1.2-1.7 0-3.1-.7-4.2-2s-1.6-3.2-1.6-5.7c0-2.6.5-4.6 1.6-5.9 1.1-1.4 2.5-2 4.1-2 1.6 0 2.9.7 4 2s1.6 3.3 1.6 5.8v.7H105c.1 1.7.5 2.9 1.2 3.8.7.9 1.5 1.3 2.5 1.3 1.6-.1 2.7-1.1 3.3-3.2m-6.8-4.1h6.9c-.1-1.3-.4-2.2-.8-2.9-.7-.9-1.5-1.4-2.6-1.4-.9 0-1.7.4-2.4 1.1-.7.9-1.1 1.9-1.1 3.2m20.7 9v-1.9c-.4.7-.9 1.3-1.5 1.7-.6.4-1.2.6-1.9.6-1.5 0-2.7-.7-3.8-2.1-1.1-1.4-1.6-3.3-1.6-5.8 0-1.7.2-3.1.7-4.3.5-1.2 1.1-2.1 1.9-2.6.8-.6 1.7-.9 2.6-.9.7 0 1.3.2 1.9.6.6.4 1.1.9 1.5 1.5V4.6h2.1v20.7h-1.9zm-6.6-7.5c0 1.9.3 3.4 1 4.3.7.9 1.5 1.4 2.3 1.4.9 0 1.6-.4 2.3-1.3.7-.9 1-2.3 1-4.1 0-2.1-.3-3.6-1-4.6-.7-1-1.5-1.4-2.5-1.4-.9 0-1.6.5-2.3 1.4-.4.9-.8 2.3-.8 4.3" fill="#262729"/><path class="st1" d="M132.9 0v32.5h-13.7l42.9 22.3 43-22.3h-13.8V0z"/><path d="M136.5 25.3V4.6h7.5c1.6 0 2.7.2 3.5.6.8.4 1.4 1 1.8 1.9.5.9.7 1.9.7 3.1 0 1.6-.4 2.8-1.2 3.8-.8 1-2 1.6-3.6 1.8.6.4 1.1.8 1.5 1.2.7.8 1.2 1.7 1.8 2.6l2.9 5.6h-2.8l-2.3-4.3c-.9-1.7-1.5-2.8-2-3.4-.4-.6-.9-1-1.3-1.2-.4-.2-1-.3-1.7-.3h-2.6v9.2h-2.2zm2.3-11.6h4.8c1 0 1.8-.1 2.4-.4.5-.3 1-.7 1.3-1.2.3-.5.5-1.2.5-1.9 0-1-.3-1.9-.9-2.5-.6-.6-1.5-.9-2.7-.9h-5.3v6.9zm23.7 9.7c-.7.7-1.4 1.3-2.2 1.6-.8.4-1.5.6-2.3.6-1.3 0-2.3-.4-3.1-1.2-.8-.8-1.1-1.8-1.1-3.1 0-.9.2-1.6.5-2.3.4-.7.9-1.2 1.5-1.6.6-.4 1.6-.6 2.8-.8 1.7-.3 2.9-.6 3.7-.9v-.6c0-1-.2-1.7-.6-2.1-.5-.6-1.3-.9-2.4-.9-1 0-1.7.2-2.2.6-.5.4-.8 1.2-1.1 2.3l-2.1-.4c.3-1.6.9-2.8 1.8-3.5.9-.7 2.2-1.1 3.8-1.1 1.3 0 2.3.2 3 .7.7.5 1.2 1.1 1.4 1.8.2.7.3 1.8.3 3.1V19c0 2.4 0 3.9.1 4.5.1.6.3 1.2.5 1.8h-2.2c.1-.5 0-1.2-.1-1.9m-.1-5.6c-.8.4-1.9.7-3.4 1-.9.2-1.5.3-1.8.5-.3.2-.6.5-.8.8-.2.4-.3.8-.3 1.2 0 .7.2 1.3.7 1.7.5.4 1.1.6 1.8.6s1.4-.2 2-.6c.6-.4 1.1-.9 1.4-1.5.3-.6.4-1.6.4-2.8v-.9zm11.1 5.2l.3 2.3c-.6.1-1.1.2-1.6.2-.7 0-1.3-.1-1.8-.4-.4-.3-.8-.7-.9-1.2-.2-.5-.2-1.5-.2-3v-8.6h-1.6v-2h1.6V6.6l2.1-1.5v5.2h2.1v2h-2.1V21c0 .8.1 1.3.2 1.6.2.3.5.5 1 .5.2 0 .5 0 .9-.1m11.5-2.6l2.1.4c-.4 1.6-1 2.8-1.9 3.6-.9.8-2.1 1.2-3.5 1.2-1.7 0-3.1-.7-4.2-2s-1.6-3.2-1.6-5.7c0-2.6.5-4.6 1.6-5.9 1.1-1.4 2.5-2 4.1-2 1.6 0 2.9.7 4 2s1.6 3.3 1.6 5.8v.7H178c.1 1.7.5 2.9 1.2 3.8.7.9 1.5 1.3 2.5 1.3 1.6-.1 2.7-1.1 3.3-3.2m-6.8-4.1h6.9c-.1-1.3-.4-2.2-.8-2.9-.7-.9-1.5-1.4-2.6-1.4-.9 0-1.7.4-2.4 1.1-.7.9-1.1 1.9-1.1 3.2" fill="#fff"/><path class="st1" d="M198.1 25.1c-1.6 0-2.8 1.2-2.8 2.6 0 1.4 1.3 2.6 2.8 2.6 1.6 0 2.9-1.2 2.9-2.6-.1-1.4-1.3-2.6-2.9-2.6m0 6c-2 0-3.6-1.5-3.6-3.4s1.6-3.4 3.6-3.4 3.7 1.5 3.7 3.4c-.1 1.9-1.7 3.4-3.7 3.4"/><path class="st1" d="M197 25.9c.2-.1.6-.1.9-.1.5 0 .9.1 1.1.3.2.2.3.4.3.7 0 .5-.3.8-.7 1 .3.1.5.4.6.8.1.5.2.9.3 1h-.5c-.1-.1-.1-.4-.2-.9s-.3-.7-.8-.7h-.5v1.7h-.5v-3.8zm.5 1.7h.5c.5 0 .9-.3.9-.7 0-.5-.4-.7-.9-.7h-.5v1.4z"/></g></svg>