<?xml version="1.0" encoding="utf-8"?>
<!-- Generator: Adobe Illustrator 17.0.2, SVG Export Plug-In . SVG Version: 6.00 Build 0)  -->
<!DOCTYPE svg PUBLIC "-//W3C//DTD SVG 1.1//EN" "http://www.w3.org/Graphics/SVG/1.1/DTD/svg11.dtd">
<svg version="1.1" id="Layer_1" xmlns="http://www.w3.org/2000/svg" xmlns:xlink="http://www.w3.org/1999/xlink" x="0px" y="0px"
	 width="300px" height="80.338px" viewBox="0 0 300 80.338" enable-background="new 0 0 300 80.338" xml:space="preserve">
<g>
	<path fill="#FFFFFF" d="M3.148,25.704c0,2.877,0.479,4.978,1.442,6.301c0.96,1.327,2.142,1.984,3.53,1.984
		c1.391,0,2.58-0.648,3.553-1.941c0.977-1.295,1.459-3.355,1.459-6.178c0-2.754-0.497-4.802-1.504-6.145
		c-0.999-1.343-2.22-2.014-3.657-2.014c-1.279,0-2.407,0.671-3.376,2.014C3.627,21.069,3.148,23.062,3.148,25.704 M0.606,38.901
		l3.041,0.548c0.138,1.176,0.55,2.046,1.238,2.622c0.69,0.568,1.651,0.853,2.878,0.853c1.339,0,2.403-0.318,3.196-0.96
		c0.797-0.643,1.341-1.603,1.63-2.872c0.18-0.779,0.27-2.407,0.27-4.899c-0.666,0.957-1.411,1.674-2.251,2.159
		c-0.825,0.486-1.748,0.727-2.763,0.727c-2.161,0-3.957-0.912-5.389-2.732C0.821,32.251,0,29.447,0,25.933
		c0-2.359,0.357-4.419,1.082-6.184c0.722-1.763,1.667-3.06,2.847-3.889c1.165-0.824,2.479-1.24,3.935-1.24
		c1.074,0,2.046,0.263,2.931,0.79c0.877,0.526,1.658,1.313,2.336,2.361v-2.653h2.766V34.12c0,3.376-0.284,5.786-0.832,7.233
		c-0.554,1.44-1.457,2.577-2.715,3.415s-2.771,1.249-4.529,1.249c-2.343,0-4.132-0.628-5.389-1.886
		C1.172,42.87,0.571,41.127,0.606,38.901"/>
	<path fill="#FFFFFF" d="M33.991,37.082v-3.225c-0.71,1.24-1.535,2.168-2.476,2.788c-0.956,0.621-2.033,0.935-3.235,0.935
		c-1.417,0-2.627-0.386-3.631-1.151c-1.012-0.769-1.675-1.731-2.017-2.905c-0.339-1.172-0.507-2.768-0.507-4.798V15.118h3.033
		v12.185c0,2.26,0.114,3.775,0.346,4.542c0.222,0.761,0.649,1.375,1.259,1.843c0.611,0.454,1.31,0.687,2.1,0.687
		c1.461,0,2.662-0.598,3.595-1.799c0.803-1.032,1.2-2.932,1.2-5.686V15.118h3.089v21.964H33.991z"/>
	<path fill="#FFFFFF" d="M54.774,26.044c-1.126,0.58-2.787,1.08-4.996,1.487c-1.29,0.223-2.184,0.468-2.699,0.747
		c-0.51,0.283-0.904,0.676-1.192,1.187c-0.28,0.514-0.426,1.102-0.426,1.772c0,1.031,0.33,1.864,0.978,2.485
		c0.649,0.621,1.543,0.932,2.69,0.932c1.096,0,2.084-0.29,2.974-0.85c0.891-0.566,1.558-1.322,2.001-2.27
		c0.447-0.938,0.67-2.318,0.67-4.126C54.774,27.408,54.774,26.044,54.774,26.044z M55.008,34.362
		c-1.019,1.066-2.081,1.866-3.183,2.407c-1.11,0.537-2.26,0.809-3.444,0.809c-1.882,0-3.38-0.564-4.493-1.69
		c-1.119-1.124-1.681-2.633-1.681-4.545c0-1.261,0.264-2.375,0.784-3.352c0.534-0.97,1.248-1.733,2.161-2.281
		c0.913-0.547,2.292-0.953,4.143-1.213c2.487-0.384,4.316-0.845,5.479-1.374l0.014-0.951c0-1.493-0.267-2.539-0.808-3.144
		c-0.759-0.875-1.923-1.315-3.499-1.315c-1.422,0-2.486,0.292-3.187,0.884c-0.703,0.587-1.22,1.687-1.554,3.309l-3.033-0.555
		c0.422-2.34,1.284-4.051,2.594-5.122c1.31-1.073,3.173-1.608,5.607-1.608c1.889,0,3.373,0.356,4.452,1.064
		c1.076,0.713,1.758,1.589,2.036,2.642c0.288,1.044,0.427,2.574,0.427,4.588v4.96c0,3.476,0.06,5.666,0.19,6.568
		c0.125,0.902,0.379,1.781,0.749,2.638h-3.197C55.273,36.316,55.096,35.414,55.008,34.362"/>
	<path fill="#FFFFFF" d="M64.276,37.082V15.118h2.763v3.345c0.698-1.549,1.341-2.576,1.925-3.083
		c0.582-0.505,1.242-0.761,1.963-0.761c1.022,0,2.057,0.404,3.123,1.22l-1.055,3.473c-0.759-0.55-1.487-0.826-2.209-0.826
		c-0.638,0-1.225,0.221-1.765,0.678c-0.534,0.457-0.908,1.087-1.127,1.905c-0.385,1.42-0.579,2.924-0.579,4.524v11.489H64.276z"/>
	<path fill="#FFFFFF" d="M89.052,26.044c-1.12,0.58-2.784,1.08-4.996,1.487c-1.284,0.223-2.184,0.468-2.691,0.747
		c-0.513,0.283-0.913,0.676-1.192,1.187c-0.282,0.514-0.423,1.102-0.423,1.772c0,1.031,0.322,1.864,0.967,2.485
		c0.652,0.621,1.55,0.932,2.698,0.932c1.091,0,2.083-0.29,2.974-0.85c0.891-0.566,1.557-1.322,2.001-2.27
		c0.44-0.938,0.662-2.318,0.662-4.126V26.044z M89.295,34.362c-1.024,1.066-2.085,1.866-3.193,2.407
		c-1.104,0.537-2.248,0.809-3.436,0.809c-1.876,0-3.38-0.564-4.504-1.69c-1.113-1.124-1.665-2.633-1.665-4.545
		c0-1.261,0.25-2.375,0.777-3.352c0.526-0.97,1.254-1.733,2.164-2.281c0.905-0.547,2.292-0.953,4.134-1.213
		c2.496-0.384,4.314-0.845,5.479-1.374l0.018-0.951c0-1.493-0.27-2.539-0.804-3.144c-0.759-0.875-1.928-1.315-3.505-1.315
		c-1.421,0-2.479,0.292-3.187,0.884c-0.703,0.587-1.223,1.687-1.547,3.309l-3.037-0.555c0.424-2.34,1.29-4.051,2.597-5.122
		c1.301-1.073,3.168-1.608,5.6-1.608c1.893,0,3.38,0.356,4.448,1.064c1.088,0.713,1.765,1.589,2.048,2.642
		c0.288,1.044,0.424,2.574,0.424,4.588v4.96c0,3.476,0.06,5.666,0.187,6.568c0.126,0.902,0.374,1.781,0.749,2.638h-3.197
		C89.56,36.316,89.38,35.414,89.295,34.362"/>
	<path fill="#FFFFFF" d="M98.562,37.082V15.118h2.815v3.099c0.653-1.204,1.46-2.11,2.41-2.703c0.958-0.594,2.043-0.894,3.279-0.894
		c0.958,0,1.84,0.193,2.653,0.573c0.815,0.377,1.477,0.875,1.977,1.489c0.5,0.61,0.87,1.407,1.116,2.384
		c0.25,0.975,0.371,2.482,0.371,4.508v13.508h-3.033V23.704c0-1.615-0.141-2.797-0.413-3.542c-0.278-0.744-0.717-1.325-1.297-1.733
		c-0.583-0.406-1.269-0.602-2.036-0.602c-1.467,0-2.636,0.541-3.505,1.63c-0.868,1.094-1.301,2.962-1.301,5.611v12.015
		L98.562,37.082L98.562,37.082z"/>
	<path fill="#FFFFFF" d="M126.316,33.715l0.441,3.309c-0.843,0.217-1.608,0.329-2.288,0.329c-1.071,0-1.928-0.212-2.569-0.626
		c-0.661-0.424-1.102-0.993-1.346-1.726c-0.244-0.727-0.368-2.181-0.368-4.355l0.053-12.603h-2.316v-2.926h2.316l-0.053-5.408
		l3.041-2.263l0.048,7.671h3.041v2.926h-3.041l-0.048,12.804c0,1.185,0.093,1.943,0.27,2.293c0.264,0.49,0.75,0.738,1.467,0.738
		C125.31,33.877,125.76,33.823,126.316,33.715"/>
	<path fill="#FFFFFF" d="M133.228,23.945h10.073c-0.141-1.877-0.545-3.281-1.223-4.208c-0.984-1.35-2.235-2.024-3.761-2.024
		c-1.36,0-2.532,0.561-3.496,1.681C133.852,20.525,133.315,22.036,133.228,23.945 M143.245,29.908l3.148,0.55
		c-0.528,2.35-1.476,4.123-2.853,5.321c-1.366,1.199-3.061,1.799-5.087,1.799c-2.555,0-4.623-0.973-6.194-2.907
		c-1.58-1.941-2.367-4.737-2.367-8.387c0-3.791,0.796-6.685,2.389-8.678c1.602-1.989,3.617-2.987,6.062-2.987
		c2.333,0,4.278,0.98,5.835,2.937c1.568,1.955,2.344,4.784,2.344,8.486l-0.023,0.998h-13.466c0.129,2.46,0.7,4.319,1.717,5.566
		c1.02,1.254,2.262,1.879,3.721,1.879C140.757,34.485,142.354,32.961,143.245,29.908"/>
	<path fill="#FFFFFF" d="M154.244,23.945h10.079c-0.141-1.877-0.545-3.281-1.228-4.208c-0.981-1.35-2.232-2.024-3.749-2.024
		c-1.369,0-2.538,0.561-3.508,1.681C154.876,20.525,154.34,22.036,154.244,23.945 M164.269,29.908l3.137,0.55
		c-0.512,2.35-1.464,4.123-2.836,5.321c-1.369,1.199-3.072,1.799-5.096,1.799c-2.549,0-4.612-0.973-6.192-2.907
		c-1.582-1.941-2.374-4.737-2.374-8.387c0-3.791,0.797-6.685,2.393-8.678c1.596-1.989,3.617-2.987,6.06-2.987
		c2.33,0,4.275,0.98,5.838,2.937c1.565,1.955,2.336,4.784,2.336,8.486l-0.017,0.998h-13.46c0.124,2.46,0.697,4.319,1.712,5.566
		c1.026,1.254,2.265,1.879,3.727,1.879C161.776,34.485,163.37,32.961,164.269,29.908"/>
	<path fill="#FFFFFF" d="M175.028,26.12c0,2.827,0.489,4.933,1.473,6.308c0.995,1.37,2.136,2.057,3.443,2.057
		c1.307,0,2.42-0.658,3.376-1.973c0.956-1.322,1.431-3.314,1.431-5.983c0-3.06-0.475-5.297-1.431-6.702
		c-0.956-1.41-2.145-2.113-3.595-2.113c-1.287,0-2.395,0.676-3.319,2.03C175.489,21.096,175.028,23.22,175.028,26.12
		 M184.683,37.082v-2.8c-0.554,1.066-1.259,1.884-2.139,2.448c-0.863,0.566-1.81,0.85-2.805,0.85c-2.128,0-3.969-1.01-5.531-3.009
		c-1.557-2.008-2.324-4.833-2.324-8.468c0-2.496,0.337-4.617,1.037-6.348c0.683-1.738,1.605-3.026,2.754-3.869
		c1.155-0.84,2.434-1.265,3.845-1.265c1.006,0,1.939,0.272,2.794,0.807c0.86,0.536,1.582,1.284,2.145,2.244V6.729h3.094v30.352
		L184.683,37.082L184.683,37.082z"/>
</g>
<polygon fill="#CA2F35" points="194.948,0 194.948,47.673 173.761,47.673 237.321,80.338 238.206,80.338 300,47.673 280.582,47.673 
	280.582,0 "/>
<path fill="#FFFFFF" d="M203.549,20.139h7.046c1.535,0,2.704-0.186,3.499-0.561c0.795-0.372,1.428-0.956,1.891-1.758
	c0.469-0.802,0.703-1.728,0.703-2.796c0-1.534-0.45-2.738-1.343-3.612c-0.885-0.875-2.22-1.31-3.969-1.31h-7.827L203.549,20.139
	L203.549,20.139z M200.241,37.082V6.729h11.02c2.299,0,3.999,0.281,5.093,0.85c1.099,0.566,1.99,1.505,2.698,2.823
	s1.051,2.84,1.051,4.585c0,2.282-0.593,4.134-1.793,5.559c-1.189,1.419-2.937,2.329-5.214,2.712c0.95,0.555,1.678,1.119,2.164,1.695
	c0.978,1.158,1.83,2.448,2.577,3.873l4.317,8.256h-4.14l-3.308-6.303c-1.279-2.46-2.248-4.125-2.903-4.979
	c-0.646-0.861-1.279-1.44-1.889-1.738c-0.613-0.294-1.476-0.445-2.566-0.445h-3.8v13.464L200.241,37.082L200.241,37.082z"/>
<path fill="#FFFFFF" d="M238.139,26.044c-1.113,0.58-2.78,1.08-4.992,1.487c-1.29,0.223-2.184,0.468-2.695,0.747
	c-0.512,0.283-0.908,0.676-1.186,1.187c-0.292,0.514-0.433,1.102-0.433,1.772c0,1.031,0.332,1.864,0.972,2.485
	c0.66,0.621,1.554,0.932,2.698,0.932c1.096,0,2.08-0.29,2.968-0.85c0.896-0.566,1.563-1.322,2.009-2.27
	c0.444-0.938,0.658-2.318,0.658-4.126v-1.364H238.139z M238.375,34.362c-1.017,1.066-2.08,1.866-3.184,2.407
	c-1.11,0.537-2.246,0.809-3.443,0.809c-1.869,0-3.367-0.564-4.491-1.69c-1.119-1.124-1.67-2.633-1.67-4.545
	c0-1.261,0.253-2.375,0.781-3.352c0.526-0.97,1.248-1.733,2.15-2.281c0.916-0.547,2.305-0.953,4.154-1.213
	c2.485-0.384,4.306-0.845,5.467-1.374l0.028-0.951c0-1.493-0.273-2.539-0.809-3.144c-0.764-0.875-1.925-1.315-3.505-1.315
	c-1.425,0-2.485,0.292-3.193,0.884c-0.694,0.587-1.217,1.687-1.549,3.309l-3.033-0.555c0.427-2.34,1.293-4.051,2.597-5.122
	c1.307-1.073,3.173-1.608,5.613-1.608c1.883,0,3.364,0.356,4.444,1.064c1.076,0.713,1.754,1.589,2.032,2.642
	c0.287,1.044,0.438,2.574,0.438,4.588v4.96c0,3.476,0.056,5.666,0.183,6.568c0.129,0.902,0.379,1.781,0.75,2.638h-3.198
	C238.653,36.316,238.468,35.414,238.375,34.362"/>
<path fill="#FFFFFF" d="M254.384,33.715l0.444,3.309c-0.846,0.217-1.608,0.329-2.291,0.329c-1.071,0-1.922-0.212-2.574-0.626
	c-0.649-0.424-1.102-0.993-1.343-1.726c-0.242-0.727-0.365-2.181-0.365-4.355l0.056-12.603h-2.316v-2.926h2.316l-0.056-5.408
	l3.041-2.263l0.051,7.671h3.038v2.926h-3.038l-0.051,12.804c0,1.185,0.087,1.943,0.267,2.293c0.264,0.49,0.748,0.738,1.47,0.738
	C253.375,33.877,253.822,33.823,254.384,33.715"/>
<path fill="#FFFFFF" d="M261.292,23.945h10.076c-0.146-1.877-0.543-3.281-1.223-4.208c-0.984-1.35-2.235-2.024-3.761-2.024
	c-1.366,0-2.538,0.561-3.496,1.681C261.925,20.525,261.391,22.036,261.292,23.945 M271.315,29.908l3.142,0.55
	c-0.526,2.35-1.476,4.123-2.847,5.321c-1.36,1.199-3.058,1.799-5.096,1.799c-2.555,0-4.618-0.973-6.189-2.907
	c-1.585-1.941-2.366-4.737-2.366-8.387c0-3.791,0.795-6.685,2.389-8.678c1.605-1.989,3.612-2.987,6.057-2.987
	c2.338,0,4.283,0.98,5.852,2.937c1.551,1.955,2.333,4.784,2.333,8.486l-0.023,0.998h-13.46c0.124,2.46,0.694,4.319,1.712,5.566
	c1.014,1.254,2.262,1.879,3.718,1.879C268.819,34.485,270.418,32.961,271.315,29.908"/>
<g>
	<path fill="#D13239" d="M290.5,45.619c-2.946,0-5.343-2.235-5.343-4.986c0-2.756,2.397-4.997,5.343-4.997
		c2.951,0,5.354,2.241,5.354,4.997C295.854,43.384,293.451,45.619,290.5,45.619L290.5,45.619z M290.5,36.805
		c-2.302,0-4.174,1.717-4.174,3.828c0,2.105,1.872,3.818,4.174,3.818c2.307,0,4.185-1.713,4.185-3.818
		C294.685,38.522,292.808,36.805,290.5,36.805L290.5,36.805z"/>
</g>
<path fill="#D13239" d="M289.693,40.493h0.739c0.773,0,1.259-0.429,1.259-1.067c0-0.729-0.52-1.043-1.282-1.043
	c-0.357,0-0.599,0.034-0.717,0.066v2.044H289.693z M288.971,37.942c0.36-0.075,0.897-0.125,1.383-0.125
	c0.781,0,1.284,0.153,1.636,0.468c0.264,0.24,0.438,0.624,0.438,1.064c0,0.733-0.469,1.223-1.054,1.424v0.025
	c0.424,0.147,0.68,0.549,0.818,1.132c0.185,0.78,0.329,1.322,0.43,1.536h-0.75c-0.093-0.153-0.214-0.638-0.365-1.338
	c-0.163-0.771-0.475-1.068-1.127-1.09h-0.686v2.428h-0.722L288.971,37.942L288.971,37.942z"/>
</svg>
